<?xml version="1.0" encoding="UTF-8"?>
<svg id="Layer_1" xmlns="http://www.w3.org/2000/svg" version="1.1" viewBox="0 0 120 60">
  <!-- Generator: Adobe Illustrator 30.2.1, SVG Export Plug-In . SVG Version: 2.1.1 Build 1)  -->
  <defs>
    <style>
      .st0 {
        fill: #155EE8;
      }
    </style>
  </defs>
  <path class="st0" d="M59.21,32.89c2.82,0,4.7-1.85,4.7-4.91v-7.92h-3.1v7.77c0,1.46-.52,2.12-1.61,2.12s-1.49-.73-1.49-2.12v-7.77h-3.12v7.92c.03,3.15,1.76,4.91,4.61,4.91ZM67.92,28.64h.88c1.31,0,2.31-.1,3.12-.55,1.24-.76,2-2.09,2-3.73s-.58-2.76-1.7-3.55c-.85-.58-1.88-.7-3.19-.7h-4.18v12.62h3.06v-4.1ZM67.95,22.91h.82c1.36,0,2.03.43,2.03,1.49,0,1.15-.76,1.55-2.28,1.55h-.55v-3h-.03v-.03ZM90.98,25.67l4.73,7h2.73v-12.62h-3.12v7l-4.65-6.96h-2.8v12.62h3.1l.02-7.04ZM47.35,32.92c1.76,0,3.4-.7,4.67-1.97,1.18-1.21,1.85-2.85,1.85-4.67s-.7-3.34-1.97-4.58c-1.19-1.2-2.8-1.88-4.49-1.88-1.8,0-3.34.64-4.58,1.85-1.23,1.19-1.92,2.84-1.91,4.55,0,1.88.58,3.4,1.8,4.7,1.18,1.37,2.8,2,4.64,2h-.01ZM47.38,23c1.76,0,3.25,1.49,3.25,3.31,0,2.06-1.49,3.52-3.28,3.52s-3.31-1.55-3.31-3.52,1.46-3.31,3.34-3.31h0ZM80.81,32.92c1.76,0,3.4-.7,4.67-1.97,1.18-1.21,1.85-2.85,1.85-4.67s-.7-3.34-1.97-4.58c-1.21-1.21-2.82-1.88-4.5-1.88-1.8,0-3.34.64-4.58,1.85-1.23,1.19-1.92,2.84-1.91,4.55,0,1.88.58,3.4,1.8,4.7,1.18,1.37,2.76,2,4.64,2h0ZM80.84,23c1.76,0,3.25,1.49,3.25,3.31,0,2.06-1.49,3.52-3.28,3.52s-3.31-1.55-3.31-3.52,1.46-3.31,3.34-3.31h0ZM19.34,30.98c1.24,1.3,2.82,2,4.7,2,2.12,0,4.16-1.06,5.37-2.82.73-1.06,1.09-2.28,1.09-3.7l-.03-.82h-7.22v2.52h3.6c-.64,1.12-1.67,1.7-2.85,1.7-1.73,0-3.31-1.55-3.31-3.55,0-1.83,1.48-3.31,3.31-3.31.97,0,1.8.39,2.58,1.21h3.52c-1.03-2.7-3.37-4.37-6.07-4.37-1.8,0-3.34.64-4.58,1.88-1.23,1.19-1.92,2.84-1.91,4.55-.01,1.74.63,3.42,1.8,4.7h0ZM34.39,28.64l2.43,4.07h3.79l-3.1-4.34c1.8-.49,2.85-2.03,2.85-4.07,0-1.58-.58-2.76-1.7-3.55-.85-.58-1.88-.7-3.19-.7h-4.19v12.62h3.1v-4.03ZM34.39,22.91h.85c1.37,0,2.03.43,2.03,1.49,0,1.15-.76,1.55-2.28,1.55h-.58v-3h-.03v-.03Z"/>
</svg>